<svg width="1962" height="522" xmlns="http://www.w3.org/2000/svg" xmlns:xlink="http://www.w3.org/1999/xlink" xml:space="preserve" overflow="hidden"><defs><clipPath id="clip0"><rect x="1205" y="1036" width="1962" height="522"/></clipPath></defs><g clip-path="url(#clip0)" transform="translate(-1205 -1036)"><path d="M1205 1051.35C1205 1042.87 1211.87 1036 1220.35 1036L3151.65 1036C3160.13 1036 3167 1042.87 3167 1051.35L3167 1542.65C3167 1551.13 3160.13 1558 3151.65 1558L1220.35 1558C1211.87 1558 1205 1551.13 1205 1542.65Z" fill="#003FF2" fill-rule="evenodd"/><text fill="#FFFFFF" font-family="Comic Sans MS,Comic Sans MS_MSFontService,sans-serif" font-weight="400" font-size="73" transform="matrix(1 0 0 1 1277.37 1158)">Consider subscribe to the Kickstarter plan!</text><text fill="#FFFFFF" font-family="Comic Sans MS,Comic Sans MS_MSFontService,sans-serif" font-weight="400" font-size="50" transform="matrix(1 0 0 1 1277.37 1224)">Have a chance to get Pre</text><text fill="#FFFFFF" font-family="Comic Sans MS,Comic Sans MS_MSFontService,sans-serif" font-weight="400" font-size="50" transform="matrix(1 0 0 1 1860.6 1224)">-</text><text fill="#FFFFFF" font-family="Comic Sans MS,Comic Sans MS_MSFontService,sans-serif" font-weight="400" font-size="50" transform="matrix(1 0 0 1 1881.8 1224)">release versions of </text><text fill="#FFFFFF" font-family="Comic Sans MS,Comic Sans MS_MSFontService,sans-serif" font-weight="400" font-size="50" transform="matrix(1 0 0 1 2341.85 1224)">Baldi’s</text><text fill="#FFFFFF" font-family="Comic Sans MS,Comic Sans MS_MSFontService,sans-serif" font-weight="400" font-size="50" transform="matrix(1 0 0 1 2505.71 1224)">Basics Plus by support us </text><text fill="#FFFFFF" font-family="Comic Sans MS,Comic Sans MS_MSFontService,sans-serif" font-weight="400" font-size="50" transform="matrix(1 0 0 1 1277.37 1284)">only $3/month! We will notify you every time the pre</text><text fill="#FFFFFF" font-family="Comic Sans MS,Comic Sans MS_MSFontService,sans-serif" font-weight="400" font-size="50" transform="matrix(1 0 0 1 2522.9 1284)">-</text><text fill="#FFFFFF" font-family="Comic Sans MS,Comic Sans MS_MSFontService,sans-serif" font-weight="400" font-size="50" transform="matrix(1 0 0 1 2544.09 1284)">release and public </text><text fill="#FFFFFF" font-family="Comic Sans MS,Comic Sans MS_MSFontService,sans-serif" font-weight="400" font-size="50" transform="matrix(1 0 0 1 1277.37 1345)">versions is published.</text></g></svg>